<svg xmlns="http://www.w3.org/2000/svg" width="900" height="365" viewBox="0 0 900 365"><rect width="900" height="365" fill="white"/><g font-family="Arial, Helvetica, sans-serif" fill="black" stroke="black"><text x="30" y="32" font-size="16" font-weight="700">Raw core-SNP tree</text><line x1="60" y1="70" x2="60" y2="255" stroke-width="1.6"/><line x1="60" y1="70" x2="63.81357" y2="70" stroke-width="1.6"/><line x1="60" y1="172.5" x2="274.45992" y2="172.5" stroke-width="1.6"/><line x1="60" y1="255" x2="65.5728" y2="255" stroke-width="1.6"/><line x1="274.45992" y1="140.0" x2="274.45992" y2="205" stroke-width="1.6"/><line x1="274.45992" y1="140.0" x2="300.17040000000003" y2="140.0" stroke-width="1.6"/><line x1="274.45992" y1="205" x2="288.24837" y2="205" stroke-width="1.6"/><line x1="300.17040000000003" y1="125" x2="300.17040000000003" y2="155" stroke-width="1.6"/><line x1="300.17040000000003" y1="125" x2="300.18642000000006" y2="125" stroke-width="1.6"/><line x1="300.17040000000003" y1="155" x2="300.18642000000006" y2="155" stroke-width="1.6"/><text x="70.81357" y="74" font-size="12">EC4115</text><text x="307.18642000000006" y="129" font-size="12">EDL933</text><text x="307.18642000000006" y="159" font-size="12">Reference</text><text x="295.24837" y="209" font-size="12">Sakai</text><text x="72.5728" y="259" font-size="12">TW14359</text><line x1="60" y1="300" x2="105.0" y2="300" stroke-width="2"/><line x1="60" y1="296" x2="60" y2="304"/><line x1="105.0" y1="296" x2="105.0" y2="304"/><text x="60" y="320" font-size="10">5 × 10⁻⁵ substitutions/site</text><text x="475" y="32" font-size="16" font-weight="700">Recombination-filtered tree</text><line x1="505" y1="70" x2="505" y2="255" stroke-width="1.6"/><line x1="505" y1="70" x2="508.26547" y2="70" stroke-width="1.6"/><line x1="505" y1="172.5" x2="607.29625" y2="172.5" stroke-width="1.6"/><line x1="505" y1="255" x2="509.87845" y2="255" stroke-width="1.6"/><line x1="607.29625" y1="140.0" x2="607.29625" y2="205" stroke-width="1.6"/><line x1="607.29625" y1="140.0" x2="624.83194" y2="140.0" stroke-width="1.6"/><line x1="607.29625" y1="205" x2="618.4491399999999" y2="205" stroke-width="1.6"/><line x1="624.83194" y1="125" x2="624.83194" y2="155" stroke-width="1.6"/><line x1="624.83194" y1="125" x2="624.8479600000001" y2="125" stroke-width="1.6"/><line x1="624.83194" y1="155" x2="624.8479600000001" y2="155" stroke-width="1.6"/><text x="515.26547" y="74" font-size="12">EC4115</text><text x="631.8479600000001" y="129" font-size="12">EDL933</text><text x="631.8479600000001" y="159" font-size="12">Reference</text><text x="625.4491399999999" y="209" font-size="12">Sakai</text><text x="516.8784499999999" y="259" font-size="12">TW14359</text><line x1="505" y1="300" x2="550.0" y2="300" stroke-width="2"/><line x1="505" y1="296" x2="505" y2="304"/><line x1="550.0" y1="296" x2="550.0" y2="304"/><text x="505" y="320" font-size="10">5 × 10⁻⁵ substitutions/site</text></g><g font-family="Arial, Helvetica, sans-serif" fill="black"><text x="450" y="345" text-anchor="middle" font-size="12">Topology unchanged (normalized RF = 0); filtered total branch length = 52.8% of raw tree</text></g></svg>